PathFileType	4	(X/Y/Z)	/Users/itak/Documents/Research/Walk-IL/dataset/trc/00099_00007.trc
DataRate	CameraRate	NumFrames	NumMarkers	Units	OrigDataRate	OrigDataStartFrame	OrigNumFrames
100.000000	100.000000	4	53	mm	100.000000	457	523
Frame#	Time	RPSI			LPSI			L3			STRN			T10			C7			CLAV			RBAK			LBAK			LSHO			LUPA			LAEL			LAOL			LWTS			LWPS			LFRA			LIFD			LHPS			LHTS			RSHO			RUPA			RAEL			RAOL			RWTS			RWPS			RFRA			RIFD			RHTS			RHPS			RBHD			LFHD			RFHD			LBHD			LHIP			RHIP			RASI			LASI			LKNE			LTHI			LANK			LTIP			LTOE			LMT1			LMT5			LHEE			RKNE			RTHI			RANK			RTIP			RTOE			RMT1			RMT5			RHEE			
		X1	Y1	Z1	X2	Y2	Z2	X3	Y3	Z3	X4	Y4	Z4	X5	Y5	Z5	X6	Y6	Z6	X7	Y7	Z7	X8	Y8	Z8	X9	Y9	Z9	X10	Y10	Z10	X11	Y11	Z11	X12	Y12	Z12	X13	Y13	Z13	X14	Y14	Z14	X15	Y15	Z15	X16	Y16	Z16	X17	Y17	Z17	X18	Y18	Z18	X19	Y19	Z19	X20	Y20	Z20	X21	Y21	Z21	X22	Y22	Z22	X23	Y23	Z23	X24	Y24	Z24	X25	Y25	Z25	X26	Y26	Z26	X27	Y27	Z27	X28	Y28	Z28	X29	Y29	Z29	X30	Y30	Z30	X31	Y31	Z31	X32	Y32	Z32	X33	Y33	Z33	X34	Y34	Z34	X35	Y35	Z35	X36	Y36	Z36	X37	Y37	Z37	X38	Y38	Z38	X39	Y39	Z39	X40	Y40	Z40	X41	Y41	Z41	X42	Y42	Z42	X43	Y43	Z43	X44	Y44	Z44	X45	Y45	Z45	X46	Y46	Z46	X47	Y47	Z47	X48	Y48	Z48	X49	Y49	Z49	X50	Y50	Z50	X51	Y51	Z51	X52	Y52	Z52	X53	Y53	Z53	

458	4.57	489.4470520019531	1121.888793945312	-256.3616943359375	489.3538818359375	1123.074829101562	-391.6356201171875	482.0354614257812	1156.015380859375	-326.0607604980469	690.61376953125	1366.464721679688	-329.7098999023438	436.1827087402344	1303.234741210938	-328.0657653808594	459.0680236816406	1597.126220703125	-347.0427551269531	646.9696655273438	1498.7802734375	-336.0827941894531	410.8614807128906	1411.773803710938	-256.3598937988281	451.7795104980469	1576.144287109375	-448.1014709472656	540.56494140625	1566.793701171875	-514.260986328125	530.4518432617188	1436.618408203125	-587.316162109375	569.5424194335938	1222.579223632812	-618.1650390625	504.1341247558594	1197.797241210938	-563.6287231445312	719.8895874023438	992.3604125976562	-583.2723388671875	645.6153564453125	949.0540161132812	-610.8900756835938	606.986083984375	1111.843139648438	-626.0804443359375	772.1854248046875	804.9459228515625	-563.6104125976562	690.2350463867188	882.2794189453125	-613.482177734375	754.2489013671875	908.5159912109375	-596.7343139648438	515.546142578125	1583.240478515625	-164.6258697509766	502.7232971191406	1509.665893554688	-100.5380477905273	501.5502319335938	1214.166748046875	-80.09213256835938	494.3959655761719	1213.835693359375	-176.3016967773438	657.3500366210938	978.9276733398438	-97.07435607910156	583.4111328125	957.8585205078125	-69.33370971679688	529.025390625	1141.847534179688	-66.27024841308594	686.6402587890625	785.3089599609375	-125.41162109375	689.2144165039062	869.8676147460938	-97.41567993164062	622.9482421875	859.4511108398438	-69.30019378662109	493.00830078125	1770.375122070312	-270.3530883789062	653.349853515625	1842.367309570312	-403.0576477050781	651.8964233398438	1848.726196289062	-273.491943359375	484.7041625976562	1767.630126953125	-405.4102172851562	584.1554565429688	1039.240600585938	-499.411865234375	619.71533203125	1029.936767578125	-139.4801025390625	697.9112548828125	1108.417358398438	-192.8367767333984	691.0277099609375	1109.211181640625	-458.81591796875	628.1939697265625	538.798828125	-472.5263061523438	603.1646728515625	683.6260375976562	-498.550537109375	496.8411254882812	35.28264617919922	-472.6423950195312	518.2461547851562	292.5536193847656	-502.640869140625	726.2072143554688	36.20840835571289	-405.6708984375	643.5037231445312	42.63778305053711	-376.6316223144531	623.0422973632812	31.54427909851074	-494.6257934570312	426.1177368164062	38.85329818725586	-413.4457397460938	602.14990234375	537.6598510742188	-192.1882781982422	635.722412109375	817.0283203125	-154.7933349609375	493.1385498046875	29.55591773986816	-231.5462799072266	572.9564819335938	405.0033874511719	-187.83251953125	727.2987060546875	40.0677375793457	-288.0270690917969	662.712158203125	32.57471466064453	-326.6440124511719	627.7297973632812	37.45082092285156	-209.2947692871094	436.0383911132812	34.28897857666016	-279.3940124511719	
459	4.58	490.1151123046875	1121.9833984375	-257.1372680664062	490.3211364746094	1123.1884765625	-392.3783569335938	482.9591369628906	1156.08935546875	-326.8378295898438	691.5802001953125	1366.236694335938	-330.1964111328125	437.1422119140625	1303.27978515625	-328.9312133789062	460.2595825195312	1597.115600585938	-347.7840576171875	648.0164794921875	1498.596801757812	-336.5078735351562	411.7332458496094	1411.679565429688	-257.3628234863281	453.1120300292969	1576.203735351562	-448.89501953125	541.9743041992188	1566.790161132812	-514.8362426757812	532.2393188476562	1436.710327148438	-588.0463256835938	572.3753051757812	1222.882690429688	-619.0291137695312	506.9161376953125	1197.651245117188	-564.760498046875	724.6331176757812	994.0826416015625	-583.8143920898438	650.9229125976562	950.0996704101562	-611.7451782226562	610.7498779296875	1112.500610351562	-626.923095703125	778.944091796875	807.4892578125	-564.3565063476562	696.2124633789062	883.7821044921875	-614.278564453125	759.8603515625	910.61572265625	-597.2970581054688	516.2892456054688	1582.984252929688	-165.2762298583984	503.149169921875	1509.412719726562	-101.2702941894531	500.6380920410156	1213.96533203125	-81.12471771240234	493.7542419433594	1213.798461914062	-177.3474273681641	654.5143432617188	977.5033569335938	-97.63726043701172	580.1981811523438	956.9940185546875	-70.51850128173828	527.5591430664062	1141.492553710938	-67.30997467041016	682.4916381835938	783.7349243164062	-126.2054138183594	685.4973754882812	868.1907958984375	-97.97176361083984	618.8741455078125	858.2423706054688	-70.46366119384766	494.3350219726562	1770.353881835938	-270.8807373046875	654.6521606445312	1842.279296875	-403.6445617675781	653.2223510742188	1848.6669921875	-274.0805053710938	485.967529296875	1767.59619140625	-405.9536437988281	584.8851928710938	1039.1767578125	-500.0608520507812	620.2091064453125	1029.870483398438	-140.2209320068359	698.7095947265625	1108.286987304688	-193.5270385742188	691.9988403320312	1109.00244140625	-459.4575500488281	627.1939697265625	538.8551025390625	-472.9431457519531	602.6422119140625	683.6998901367188	-499.1115417480469	496.8382568359375	35.25287246704102	-472.6888732910156	517.6508178710938	292.5623474121094	-503.0000305175781	726.2021484375	36.21266937255859	-405.6598510742188	643.4882202148438	42.63888931274414	-376.6434326171875	623.0357666015625	31.52724266052246	-494.6458129882812	426.0994567871094	38.79055786132812	-413.4879150390625	602.3678588867188	537.65625	-192.6158447265625	635.9981079101562	816.7221069335938	-155.2101440429688	493.1050720214844	29.56968688964844	-231.584716796875	573.0321655273438	405.0303955078125	-188.2048034667969	727.2738037109375	40.10271835327148	-288.0021057128906	662.6883544921875	32.55128479003906	-326.6487731933594	627.70361328125	37.46268463134766	-209.3115081787109	436.0487670898438	34.27021789550781	-279.4324645996094	
460	4.59	490.7633972167969	1122.085205078125	-257.9163513183594	491.2694396972656	1123.323852539062	-393.1347351074219	483.8613891601562	1156.1923828125	-327.6284484863281	692.5126342773438	1366.034301757812	-330.6637268066406	438.0777282714844	1303.338989257812	-329.8138732910156	461.4096374511719	1597.114013671875	-348.5306701660156	649.0259399414062	1498.431762695312	-336.9163513183594	412.6087646484375	1411.583984375	-258.3880920410156	454.4248046875	1576.283447265625	-449.6962890625	543.3833618164062	1566.822509765625	-515.40869140625	533.9915771484375	1436.823974609375	-588.756591796875	575.054443359375	1223.183959960938	-619.828369140625	509.5534973144531	1197.561767578125	-565.80908203125	729.0770874023438	995.7356567382812	-584.25732421875	655.91162109375	951.1287231445312	-612.4789428710938	614.2955322265625	1113.145385742188	-627.6807861328125	785.364990234375	810.061279296875	-565.0285034179688	701.8240966796875	885.2423095703125	-614.94140625	765.11865234375	912.6533203125	-597.7713012695312	516.9494018554688	1582.728271484375	-165.9249572753906	503.4942016601562	1509.157470703125	-102.0094299316406	499.791748046875	1213.771362304688	-82.11540222167969	493.1834716796875	1213.736206054688	-178.350341796875	651.9071655273438	976.209228515625	-98.18997192382812	577.2445678710938	956.21044921875	-71.64945983886719	526.2122802734375	1141.164672851562	-68.30820465087891	678.703369140625	782.308837890625	-126.9220657348633	682.0897827148438	866.6787109375	-98.48993682861328	615.1307983398438	857.1571044921875	-71.5537109375	495.6323852539062	1770.369262695312	-271.3827209472656	655.9246215820312	1842.18994140625	-404.2229919433594	654.5260009765625	1848.617431640625	-274.6512451171875	487.187744140625	1767.581909179688	-406.4749450683594	585.6593627929688	1039.12890625	-500.6994323730469	620.7061767578125	1029.812744140625	-140.9289398193359	699.4367065429688	1108.1611328125	-194.1637420654297	692.956298828125	1108.804077148438	-460.0690002441406	626.229248046875	538.90380859375	-473.3170166015625	602.1847534179688	683.7612915039062	-499.6383056640625	496.8360595703125	35.22541046142578	-472.7373352050781	517.0929565429688	292.5838012695312	-503.3681030273438	726.192138671875	36.21430206298828	-405.6465148925781	643.4718627929688	42.6444091796875	-376.6585693359375	623.0303344726562	31.50651550292969	-494.6673583984375	426.0877380371094	38.73271560668945	-413.5368347167969	602.5850830078125	537.6610717773438	-193.04052734375	636.1531372070312	816.4058837890625	-155.572021484375	493.0694274902344	29.59219360351562	-231.6308135986328	573.1082763671875	405.0571899414062	-188.5828704833984	727.2528076171875	40.13195419311523	-287.9781494140625	662.668212890625	32.5280876159668	-326.6543273925781	627.6823120117188	37.47699737548828	-209.3288421630859	436.0729675292969	34.25863647460938	-279.4684143066406	
461	4.600000000000001	491.4014282226562	1122.196166992188	-258.701904296875	492.1936340332031	1123.478881835938	-393.9069519042969	484.7414855957031	1156.322875976562	-328.4332885742188	693.4098510742188	1365.858642578125	-331.1093139648438	438.9924926757812	1303.411865234375	-330.7160949707031	462.5177307128906	1597.125854492188	-349.2847900390625	649.9998779296875	1498.286987304688	-337.3060302734375	413.4982299804688	1411.49560546875	-259.4351501464844	455.7209167480469	1576.384887695312	-450.5065307617188	544.7984619140625	1566.89501953125	-515.9767456054688	535.7212524414062	1436.96630859375	-589.447265625	577.5881958007812	1223.486083984375	-620.56689453125	512.0455322265625	1197.530639648438	-566.7825927734375	733.2168579101562	997.3091430664062	-584.6024780273438	660.5695190429688	952.1305541992188	-613.0885620117188	617.6231079101562	1113.772094726562	-628.3568725585938	791.408203125	812.6105346679688	-565.6029052734375	707.0617065429688	886.6448974609375	-615.4674072265625	770.0204467773438	914.6219482421875	-598.1548461914062	517.5352172851562	1582.480590820312	-166.5723876953125	503.7655029296875	1508.90771484375	-102.7568435668945	499.018798828125	1213.59228515625	-83.06594085693359	492.6834106445312	1213.656860351562	-179.3114929199219	649.5408325195312	975.0436401367188	-98.73338317871094	574.556640625	955.507568359375	-72.72486114501953	524.9794311523438	1140.867797851562	-69.26913452148438	675.2572631835938	781.0208129882812	-127.5885925292969	678.9921264648438	865.3201904296875	-98.98693084716797	611.7225952148438	856.1886596679688	-72.57731628417969	496.8936157226562	1770.420654296875	-271.8639221191406	657.1658935546875	1842.101928710938	-404.7923278808594	655.8030395507812	1848.58056640625	-275.2049865722656	488.3669128417969	1767.584350585938	-406.9757080078125	586.4675903320312	1039.094604492188	-501.3255920410156	621.1913452148438	1029.770385742188	-141.6080017089844	700.097900390625	1108.046142578125	-194.7554931640625	693.894775390625	1108.61865234375	-460.6485290527344	625.2974243164062	538.9323120117188	-473.6657104492188	601.7826538085938	683.8038940429688	-500.1448364257812	496.8345642089844	35.2001838684082	-472.7848510742188	516.558837890625	292.6106262207031	-503.7316589355469	726.1768188476562	36.2122917175293	-405.6316833496094	643.4558715820312	42.65424346923828	-376.6762084960938	623.026123046875	31.48192405700684	-494.6905212402344	426.0823669433594	38.68151473999023	-413.5896911621094	602.8037719726562	537.671142578125	-193.4589385986328	636.1998291015625	816.0807495117188	-155.8876647949219	493.0326538085938	29.62198638916016	-231.6812896728516	573.1892700195312	405.0823059082031	-188.9640808105469	727.2349853515625	40.15568923950195	-287.9541320800781	662.6521606445312	32.50654602050781	-326.6589660644531	627.6661376953125	37.49293899536133	-209.3451385498047	436.1071472167969	34.25134658813477	-279.5014038085938	
